# xmcd
#
# Track frame offsets:
#	150
#	12615
#	27503
#	40216
#	53116
#	67606
#	80716
#	92221
#	105526
#	120286
#	135849
#	148509
#	163232
#	173440
#	187563
#	200043
#
# Disc length: 2829 seconds
#
# Revision: 1
# Processed by: cddbd v1.5.2PL0 Copyright (c) Steve Scherf et al.
# Submitted via: audiograbber 1.83.01
#
DISCID=ca0b0b10
DTITLE=Jimmie Rodgers - Jimmie The Kid
DYEAR=1960
DGENRE=Country
TTITLE0=Jimmie The Kid
TTITLE1=Blue Yodel # 12
TTITLE2=Frankie And Johnnie
TTITLE3=Miss The Mississippi And You
TTITLE4=Blue Yodel # 2
TTITLE5=Sleep Baby Sleep
TTITLE6=Home Call
TTITLE7=My Old Pal
TTITLE8=Looking For A New Mama
TTITLE9=Memphis Yodel
TTITLE10=Blue Yodel # 7
TTITLE11=Mother, Queen Of My Heart
TTITLE12=I'm Sorry We Met
TTITLE13=Blue Yodel # 3
TTITLE14=Tuck Away My Lonesome Blues
TTITLE15=Desert Blues
EXTD=
EXTT0=
EXTT1=
EXTT2=
EXTT3=
EXTT4=
EXTT5=
EXTT6=
EXTT7=
EXTT8=
EXTT9=
EXTT10=
EXTT11=
EXTT12=
EXTT13=
EXTT14=
EXTT15=
PLAYORDER=
